<?xml version="1.0" encoding="UTF-8" standalone="no"?><svg xmlns="http://www.w3.org/2000/svg" xmlns:xlink="http://www.w3.org/1999/xlink" contentScriptType="text/ecmascript" fill="#000000" width="385.1" zoomAndPan="magnify" contentStyleType="text/css" viewBox="-0.1 -0.1 385.1 83.7" height="83.7" preserveAspectRatio="xMidYMid meet" version="1"><g transform="translate(123.11 -69.715)"><g transform="matrix(.1006 -.40375 .40714 .12303 1185.1 -241.87)"><g fill="#aadaef" id="change1_1"><ellipse rx="14.911" ry="20.745" cx="-1577.6" cy="-2178.5"/><ellipse rx="14.35" ry="21.562" cx="-2512.3" transform="matrix(.3037 .95277 -.95965 .28119 0 0)" cy="823.82"/><ellipse rx="14.346" ry="21.567" cx="1646.1" transform="matrix(.29313 -.95607 .9625 .27127 0 0)" cy="-2164.9"/><ellipse rx="14.726" ry="21.022" cx="2525.3" transform="matrix(-.84335 -.53736 .56968 -.82187 0 0)" cy="946.21"/><ellipse rx="14.679" ry="21.091" cx="-149.39" transform="matrix(-.79805 .60259 -.63473 -.77273 0 0)" cy="2648"/><ellipse rx="14.679" ry="21.091" cx="-149.39" transform="matrix(-.79805 .60259 -.63473 -.77273 0 0)" cy="2648"/></g><g id="change2_3"><ellipse rx="11.914" ry="12.123" fill="#fbf9e4" cx="-1577.4" cy="-2154.8"/></g></g><g><g fill="#e1c0db" id="change3_2" transform="translate(-2527 3431.8)"><ellipse rx="14.911" ry="20.745" cx="-1577.6" transform="matrix(-.12656 -.39638 -.39831 .14915 1468.3 -3608.9)" cy="-2178.5"/><ellipse rx="14.35" ry="21.562" cx="-2512.3" transform="matrix(-.41793 .02173 .00945 .42233 1468.3 -3608.9)" cy="823.82"/><ellipse rx="14.346" ry="21.567" cx="1646.1" transform="matrix(.34372 -.25879 -.22986 -.34106 1468.3 -3608.9)" cy="-2164.9"/><ellipse rx="14.726" ry="21.022" cx="2525.3" transform="matrix(.32077 .25414 .25526 -.34839 1468.3 -3608.9)" cy="946.21"/></g><g transform="translate(-2527 3431.8)"><g id="change4_1"><ellipse rx="14.679" ry="21.091" fill="#b7dbd7" cx="-149.39" transform="matrix(-.13902 .40621 .38812 .13634 1468.3 -3608.9)" cy="2648"/></g><g id="change3_1"><ellipse rx="14.679" ry="21.091" fill="#e1c0db" cx="-149.39" transform="matrix(-.13902 .40621 .38812 .13634 1468.3 -3608.9)" cy="2648"/></g><g id="change2_1"><ellipse rx="4.957" ry="5.156" fill="#fbf9e4" cx="2211.9" transform="matrix(-.30415 -.95262 -.9365 .35068 0 0)" cy="-3415.9"/></g><g id="change5_1"><ellipse rx="1.083" ry="1.116" fill="#e7e7e7" cx="2525.4" cy="-3322.2"/></g></g><g fill="none" stroke-linejoin="round" stroke-linecap="round" stroke="#e0c789"><path d="m2525.8-3322.2c7.6543-2.6244 6.7543-17.008 2.3523-17.453-0.046-0.01-0.093-0.01-0.1411-0.01-2.9863-0.032-9.3583 7.9568-3.9941 15.612" transform="translate(-2527 3431.8)"/><path d="m2527.3-3340.1s-5.8364-4.401-4.1142-6.6018c1.7223-2.2006 4.1142 5.7409 4.1142 6.6018z" transform="translate(-2527 3431.8)"/><path d="m2527.6-3340.1c0.9568-2.6789 1.6266-5.7406 3.8272-6.219 2.2006-0.4783-2.5834 5.3581-3.8272 6.219z" transform="translate(-2527 3431.8)"/></g></g><g id="change6_1"><ellipse rx="1.083" ry="1.116" fill="#f5f5f5" cx="-147.76" transform="scale(-1 1)" cy="112.3"/></g><g fill="none" stroke-linejoin="round" stroke-linecap="round" stroke="#e0c789"><path d="m147.35 112.31c-7.6544-2.6244-6.7543-17.008-2.3523-17.453 0.046-0.01 0.093-0.01 0.141-0.01 2.9864-0.031 9.3583 7.9569 3.9941 15.612"/><path d="m145.86 94.379s5.8364-4.4011 4.1142-6.6019c-1.7223-2.2005-4.1142 5.741-4.1142 6.6019z"/><path d="m145.48 94.379c-0.9568-2.6789-1.6265-5.7407-3.8271-6.219-2.2006-0.4784 2.5833 5.358 3.8271 6.219z"/></g><g transform="matrix(.1006 -.40375 .40714 .12303 1268.7 -252.89)"><g fill="#ffe692" id="change7_1"><ellipse rx="14.911" ry="20.745" cx="-1577.6" cy="-2178.5"/><ellipse rx="14.35" ry="21.562" cx="-2512.3" transform="matrix(.3037 .95277 -.95965 .28119 0 0)" cy="823.82"/><ellipse rx="14.346" ry="21.567" cx="1646.1" transform="matrix(.29313 -.95607 .9625 .27127 0 0)" cy="-2164.9"/><ellipse rx="14.726" ry="21.022" cx="2525.3" transform="matrix(-.84335 -.53736 .56968 -.82187 0 0)" cy="946.21"/><ellipse rx="14.679" ry="21.091" cx="-149.39" transform="matrix(-.79805 .60259 -.63473 -.77273 0 0)" cy="2648"/><ellipse rx="14.679" ry="21.091" cx="-149.39" transform="matrix(-.79805 .60259 -.63473 -.77273 0 0)" cy="2648"/></g><g id="change2_2"><ellipse rx="11.914" ry="12.123" fill="#fbf9e4" cx="-1577.4" cy="-2154.8"/></g></g><g id="change6_2"><ellipse rx="1.083" ry="1.116" fill="#f5f5f5" cx="-231.42" transform="scale(-1 1)" cy="101.29"/></g><g fill="none" stroke-linejoin="round" stroke-linecap="round" stroke="#e0c789"><path d="m231.01 101.29c-7.6544-2.6244-6.7543-17.008-2.3523-17.453 0.046-0.01 0.093-0.01 0.141-0.01 2.9864-0.031 9.3583 7.9569 3.9941 15.612"/><path d="m229.52 83.36s5.8364-4.4011 4.1142-6.6019c-1.7223-2.2005-4.1142 5.741-4.1142 6.6019z"/><path d="m229.14 83.36c-0.9568-2.6789-1.6265-5.7407-3.8271-6.219-2.2006-0.4784 2.5833 5.358 3.8271 6.219z"/></g><g transform="matrix(-.1006 -.40375 -.40714 .12303 -956.34 -238.35)"><g fill="#f9cade" id="change8_1"><ellipse rx="14.911" ry="20.745" cx="-1577.6" cy="-2178.5"/><ellipse rx="14.35" ry="21.562" cx="-2512.3" transform="matrix(.3037 .95277 -.95965 .28119 0 0)" cy="823.82"/><ellipse rx="14.346" ry="21.567" cx="1646.1" transform="matrix(.29313 -.95607 .9625 .27127 0 0)" cy="-2164.9"/><ellipse rx="14.726" ry="21.022" cx="2525.3" transform="matrix(-.84335 -.53736 .56968 -.82187 0 0)" cy="946.21"/><ellipse rx="14.679" ry="21.091" cx="-149.39" transform="matrix(-.79805 .60259 -.63473 -.77273 0 0)" cy="2648"/><ellipse rx="14.679" ry="21.091" cx="-149.39" transform="matrix(-.79805 .60259 -.63473 -.77273 0 0)" cy="2648"/></g><g id="change2_4"><ellipse rx="11.914" ry="12.123" fill="#fbf9e4" cx="-1577.4" cy="-2154.8"/></g></g><g id="change6_3"><ellipse rx="1.083" ry="1.116" fill="#f5f5f5" cx="80.969" cy="115.83"/></g><g fill="none" stroke-linejoin="round" stroke-linecap="round" stroke="#e0c789"><path d="m81.371 115.83c7.6544-2.6244 6.7543-17.008 2.3523-17.453-0.046-0.01-0.093-0.01-0.141-0.01-2.9864-0.031-9.3583 7.9569-3.9941 15.612"/><path d="m82.862 97.903s-5.8364-4.4011-4.1142-6.6019c1.7223-2.2005 4.1142 5.741 4.1142 6.6019z"/><path d="m83.245 97.903c0.9568-2.6789 1.6265-5.7407 3.8271-6.219 2.2006-0.4784-2.5833 5.358-3.8271 6.219z"/></g><g transform="matrix(-.1006 -.40375 -.40714 .12303 -1107.1 -252.89)"><g fill="#ff8c8f" id="change9_1"><ellipse rx="14.911" ry="20.745" cx="-1577.6" cy="-2178.5"/><ellipse rx="14.35" ry="21.562" cx="-2512.3" transform="matrix(.3037 .95277 -.95965 .28119 0 0)" cy="823.82"/><ellipse rx="14.346" ry="21.567" cx="1646.1" transform="matrix(.29313 -.95607 .9625 .27127 0 0)" cy="-2164.9"/><ellipse rx="14.726" ry="21.022" cx="2525.3" transform="matrix(-.84335 -.53736 .56968 -.82187 0 0)" cy="946.21"/><ellipse rx="14.679" ry="21.091" cx="-149.39" transform="matrix(-.79805 .60259 -.63473 -.77273 0 0)" cy="2648"/><ellipse rx="14.679" ry="21.091" cx="-149.39" transform="matrix(-.79805 .60259 -.63473 -.77273 0 0)" cy="2648"/></g><g id="change2_5"><ellipse rx="11.914" ry="12.123" fill="#fbf9e4" cx="-1577.4" cy="-2154.8"/></g></g><g id="change6_4"><ellipse rx="1.083" ry="1.116" fill="#f5f5f5" cx="-69.821" cy="101.29"/></g><g fill="none" stroke-linejoin="round" stroke-linecap="round" stroke="#e0c789"><g><path d="m-69.419 101.29c7.6544-2.6244 6.7543-17.008 2.3523-17.453-0.046-0.01-0.093-0.01-0.141-0.01-2.9864-0.031-9.3583 7.9569-3.9941 15.612"/><path d="m-67.928 83.36s-5.8364-4.4011-4.1142-6.6019c1.7223-2.2005 4.1142 5.741 4.1142 6.6019z"/><path d="m-67.545 83.36c0.9568-2.6789 1.6265-5.7407 3.8271-6.219 2.2007-0.4784-2.5832 5.358-3.8271 6.219z"/></g><path stroke-width="1.7" d="m-122.26 70.565s197.57 60.617 383.16 5.2385"/></g></g></svg>